 <svg
              height="60"
              viewBox="0 0 157 23"
              fill="none"
              xmlns="http://www.w3.org/2000/svg"
            >
              <path
                d="M4.17541 14.288H8.39941C9.93541 14.288 10.8474 13.304 10.8474 12.008C10.8474 10.616 9.93541 9.992 8.44741 9.992H4.17541V14.288ZM8.18341 3.824H4.17541V7.28H8.37541C9.69541 7.28 10.3914 6.68 10.3914 5.552C10.3914 4.328 9.74341 3.824 8.18341 3.824ZM8.13541 17H0.95941V1.064H8.80741C11.9274 1.064 13.6074 2.744 13.6074 5.408C13.6074 6.776 12.7674 7.928 11.6634 8.384C13.0074 8.888 14.0874 9.968 14.0874 12.248C14.0874 15.152 12.1434 17 8.13541 17ZM25.1807 17H22.2287V15.344C21.4127 16.688 20.1887 17.312 18.5567 17.312C16.2047 17.312 14.5487 15.56 14.5487 12.968V5.192H17.6687V12.488C17.6687 13.976 18.3407 14.696 19.6607 14.696C21.2447 14.696 22.0847 13.568 22.0847 12.008V5.192H25.1807V17ZM31.8767 14.768C33.3647 14.768 34.5167 13.376 34.5167 11.384C34.5167 8.816 33.6287 7.544 31.9007 7.544C30.0767 7.544 29.2127 8.768 29.2127 11.192C29.2127 13.304 30.3167 14.768 31.8767 14.768ZM37.4687 17H34.4687L34.4447 15.56C33.7007 16.76 32.5967 17.312 31.1567 17.312C28.1807 17.312 26.0447 14.96 26.0447 10.976C26.0447 7.4 27.8447 4.88 30.8927 4.88C32.3567 4.88 33.5087 5.48 34.3967 6.728V0.871999H37.4687V17ZM44.1752 14.768C45.6632 14.768 46.8152 13.376 46.8152 11.384C46.8152 8.816 45.9272 7.544 44.1992 7.544C42.3752 7.544 41.5112 8.768 41.5112 11.192C41.5112 13.304 42.6152 14.768 44.1752 14.768ZM49.7672 17H46.7672L46.7432 15.56C45.9992 16.76 44.8952 17.312 43.4552 17.312C40.4792 17.312 38.3432 14.96 38.3432 10.976C38.3432 7.4 40.1432 4.88 43.1912 4.88C44.6552 4.88 45.8072 5.48 46.6952 6.728V0.871999H49.7672V17ZM58.3937 17.36V15.44C57.9617 16.496 56.6657 17.12 55.2017 17.12C52.7297 17.12 50.8817 15.44 50.8817 12.848V5.192H54.0017V12.392C54.0017 13.856 54.6737 14.6 55.9937 14.6C57.4097 14.6 58.3937 13.664 58.3937 12.392V5.192H61.5137V17.312C61.5137 20.648 59.1137 22.592 56.0897 22.592C52.6337 22.592 50.8817 20.696 50.8817 17.648H53.7857C53.7857 19.04 54.6017 19.904 56.2337 19.904C57.3617 19.904 58.3937 18.92 58.3937 17.36ZM75.5816 14.696C77.9816 14.696 79.9016 13.016 79.9016 9.248C79.9016 5.48 78.3656 3.488 75.5816 3.488C72.7736 3.488 71.2136 5.48 71.2136 9.248C71.2136 13.016 72.8216 14.696 75.5816 14.696ZM75.5816 17.552C70.6856 17.552 67.9256 14.552 67.9256 9.176C67.9256 3.776 70.6856 0.535999 75.5816 0.535999C80.4776 0.535999 83.1896 3.776 83.1896 9.248C83.1896 14.72 80.4776 17.552 75.5816 17.552ZM94.7077 17H91.5637V9.848C91.5637 8.024 91.0357 7.52 89.5477 7.52C87.9157 7.52 87.1237 8.432 87.1237 10.232V17H84.0037V5.192H86.9797V6.92C87.6997 5.6 88.8997 4.88 90.7957 4.88C93.0517 4.88 94.7077 6.248 94.7077 8.816V17ZM104.479 14.288H108.703C110.239 14.288 111.151 13.304 111.151 12.008C111.151 10.616 110.239 9.992 108.751 9.992H104.479V14.288ZM108.487 3.824H104.479V7.28H108.679C109.999 7.28 110.695 6.68 110.695 5.552C110.695 4.328 110.047 3.824 108.487 3.824ZM108.439 17H101.263V1.064H109.111C112.231 1.064 113.911 2.744 113.911 5.408C113.911 6.776 113.071 7.928 111.967 8.384C113.311 8.888 114.391 9.968 114.391 12.248C114.391 15.152 112.447 17 108.439 17ZM120.66 14.696C122.556 14.696 123.516 13.496 123.516 11.096C123.516 8.696 122.556 7.52 120.66 7.52C118.764 7.52 117.804 8.696 117.804 11.096C117.804 13.496 118.764 14.696 120.66 14.696ZM120.66 17.312C116.844 17.312 114.588 14.768 114.588 11.096C114.588 7.352 116.916 4.88 120.66 4.88C124.356 4.88 126.66 7.328 126.66 11.096C126.66 14.84 124.332 17.312 120.66 17.312ZM134.678 12.512L134.702 11.216C134.39 11.528 133.838 11.696 132.686 11.912C130.91 12.248 130.334 12.752 130.334 13.76C130.334 14.648 130.862 15.08 131.846 15.08C133.454 15.08 134.654 13.904 134.678 12.512ZM137.822 17H134.918C134.822 16.712 134.75 16.304 134.726 15.944C133.982 16.76 132.734 17.312 131.15 17.312C128.462 17.312 127.214 15.992 127.214 14.072C127.214 10.664 129.494 10.28 132.638 9.848C134.198 9.632 134.63 9.32 134.63 8.504C134.63 7.736 133.862 7.28 132.638 7.28C131.222 7.28 130.646 7.976 130.502 9.032H127.598C127.646 6.584 128.99 4.88 132.782 4.88C136.526 4.88 137.822 6.56 137.822 9.536V17ZM142.054 17H138.934V5.192H141.862V6.608C142.894 5.024 144.094 4.88 145.366 4.88H145.774V8.072C145.486 8.024 145.198 8 144.91 8C142.99 8 142.054 8.96 142.054 10.856V17ZM151.246 14.768C152.734 14.768 153.886 13.376 153.886 11.384C153.886 8.816 152.998 7.544 151.27 7.544C149.446 7.544 148.582 8.768 148.582 11.192C148.582 13.304 149.686 14.768 151.246 14.768ZM156.838 17H153.838L153.814 15.56C153.07 16.76 151.966 17.312 150.526 17.312C147.55 17.312 145.414 14.96 145.414 10.976C145.414 7.4 147.214 4.88 150.262 4.88C151.726 4.88 152.878 5.48 153.766 6.728V0.871999H156.838V17Z"
                fill="white"
              />
            </svg>